<svg xmlns="http://www.w3.org/2000/svg" width="36" height="36" viewBox="0 0 36 36" fill="none" class="injected-svg footer-primary--social-items" data-src="/0d746dd2c4755c2c97e0.svg">
<mask id="path-1-inside-1_30_183" fill="white">
<path d="M18 0C27.9411 0 36 8.05887 36 18C36 27.9411 27.9411 36 18 36C8.05887 36 0 27.9411 0 18C0 8.05887 8.05887 0 18 0Z"></path>
</mask>
<path d="M18 0C27.9411 0 36 8.05887 36 18C36 27.9411 27.9411 36 18 36C8.05887 36 0 27.9411 0 18C0 8.05887 8.05887 0 18 0Z" fill="white"></path>
<path d="M18 0V1.5C27.1127 1.5 34.5 8.8873 34.5 18H36H37.5C37.5 7.23045 28.7696 -1.5 18 -1.5V0ZM36 18H34.5C34.5 27.1127 27.1127 34.5 18 34.5V36V37.5C28.7696 37.5 37.5 28.7696 37.5 18H36ZM18 36V34.5C8.8873 34.5 1.5 27.1127 1.5 18H0H-1.5C-1.5 28.7696 7.23045 37.5 18 37.5V36ZM0 18H1.5C1.5 8.8873 8.8873 1.5 18 1.5V0V-1.5C7.23045 -1.5 -1.5 7.23045 -1.5 18H0Z" fill="#0D1F40" mask="url(#path-1-inside-1_30_183)"></path>
<path d="M9 18C9 13.7577 9 11.6356 10.3178 10.3178C11.6356 9 13.7567 9 18 9C22.2423 9 24.3644 9 25.6822 10.3178C27 11.6356 27 13.7567 27 18C27 22.2423 27 24.3644 25.6822 25.6822C24.3644 27 22.2433 27 18 27C13.7577 27 11.6356 27 10.3178 25.6822C9 24.3644 9 22.2433 9 18Z" stroke="#0D1F40" stroke-width="1.5" stroke-linecap="round" stroke-linejoin="round"></path>
<path d="M23.2181 12.7894H23.2086M22.2631 18C22.2631 19.1306 21.814 20.215 21.0145 21.0145C20.215 21.814 19.1306 22.2631 18 22.2631C16.8693 22.2631 15.785 21.814 14.9855 21.0145C14.186 20.215 13.7368 19.1306 13.7368 18C13.7368 16.8693 14.186 15.7849 14.9855 14.9854C15.785 14.186 16.8693 13.7368 18 13.7368C19.1306 13.7368 20.215 14.186 21.0145 14.9854C21.814 15.7849 22.2631 16.8693 22.2631 18Z" stroke="#0D1F40" stroke-width="1.5" stroke-linecap="round" stroke-linejoin="round"></path>
</svg>