<svg xmlns="http://www.w3.org/2000/svg" width="36" height="36" viewBox="0 0 36 36" fill="none" class="injected-svg footer-primary--social-items" data-src="/df022d119ad58b651517.svg">
<mask id="path-1-inside-1_30_179" fill="white">
<path d="M18 0C27.9411 0 36 8.05887 36 18C36 27.9411 27.9411 36 18 36C8.05887 36 0 27.9411 0 18C0 8.05887 8.05887 0 18 0Z"></path>
</mask>
<path d="M18 0C27.9411 0 36 8.05887 36 18C36 27.9411 27.9411 36 18 36C8.05887 36 0 27.9411 0 18C0 8.05887 8.05887 0 18 0Z" fill="white"></path>
<path d="M18 0V1.5C27.1127 1.5 34.5 8.8873 34.5 18H36H37.5C37.5 7.23045 28.7696 -1.5 18 -1.5V0ZM36 18H34.5C34.5 27.1127 27.1127 34.5 18 34.5V36V37.5C28.7696 37.5 37.5 28.7696 37.5 18H36ZM18 36V34.5C8.8873 34.5 1.5 27.1127 1.5 18H0H-1.5C-1.5 28.7696 7.23045 37.5 18 37.5V36ZM0 18H1.5C1.5 8.8873 8.8873 1.5 18 1.5V0V-1.5C7.23045 -1.5 -1.5 7.23045 -1.5 18H0Z" fill="#0D1F40" mask="url(#path-1-inside-1_30_179)"></path>
<path d="M23 8H20C18.6739 8 17.4021 8.52678 16.4645 9.46447C15.5268 10.4021 15 11.6739 15 13V16H12V20H15V28H19V20H22L23 16H19V13C19 12.7348 19.1054 12.4804 19.2929 12.2929C19.4804 12.1054 19.7348 12 20 12H23V8Z" stroke="#0D1F40" stroke-width="1.5" stroke-linecap="round" stroke-linejoin="round"></path>
</svg>