<svg xmlns="http://www.w3.org/2000/svg" width="36" height="36" viewBox="0 0 36 36" fill="none" class="injected-svg footer-primary--contact-img" data-src="/cc4c49671e0e8181f792.svg">
<path d="M36 18C36 27.9411 27.9411 36 18 36C8.05887 36 0 27.9411 0 18C0 8.05887 8.05887 0 18 0C27.9411 0 36 8.05887 36 18Z" fill="white"></path>
<path d="M34.5 18C34.5 8.8873 27.1127 1.5 18 1.5C8.8873 1.5 1.5 8.8873 1.5 18C1.5 27.1127 8.8873 34.5 18 34.5V36C8.05887 36 0 27.9411 0 18C0 8.05887 8.05887 0 18 0C27.9411 0 36 8.05887 36 18C36 27.9411 27.9411 36 18 36V34.5C27.1127 34.5 34.5 27.1127 34.5 18Z" fill="#0D1F40"></path>
<path d="M21.6504 18.6875C21.6504 17.33 22.3338 16.1368 23.3711 15.4112C22.7369 14.6702 21.8944 14.2999 20.9697 14.2998C20.4249 14.2998 19.8838 14.5224 19.4004 14.8379H19.3984C18.3384 15.5268 17.1525 15.5708 16.0771 14.9678L15.8633 14.8379C15.3783 14.5219 14.8376 14.2998 14.293 14.2998C13.3319 14.2998 12.472 14.6974 11.8379 15.4727C11.196 16.2577 10.75 17.4778 10.75 19.1553C10.75 20.5187 11.2114 22.0226 11.9248 23.2754C12.6509 24.5504 13.5567 25.4269 14.3408 25.708L14.4707 25.7403C14.7864 25.788 15.1955 25.639 15.7119 25.2686V25.2676C15.9655 25.0858 16.263 24.8969 16.5732 24.75C16.8733 24.608 17.2441 24.4777 17.6309 24.4776C18.017 24.4776 18.3887 24.6072 18.6885 24.7491C18.9988 24.8959 19.2961 25.0863 19.5498 25.2686L19.7646 25.4131C20.2507 25.7209 20.6315 25.8118 20.9219 25.708L21.1299 25.6211C21.623 25.3856 22.1623 24.9273 22.6758 24.2696C23.1256 23.6932 23.5271 22.9959 23.8408 22.2442C22.5446 21.574 21.6504 20.2405 21.6504 18.6875ZM20.793 7.25882C20.9038 7.26469 20.9945 7.27257 21.0596 7.27932C21.0922 7.28271 21.1185 7.2857 21.1377 7.28811L21.1689 7.29202C21.17 7.29216 21.1711 7.29288 21.1719 7.293H21.1729C21.1726 7.29603 21.1674 7.33347 21.0996 7.79983L21.1738 7.293C21.5024 7.34081 21.76 7.59917 21.8076 7.92776L21.0654 8.03518C21.8052 7.92791 21.8086 7.92753 21.8086 7.92776V7.93264C21.8089 7.93456 21.8092 7.93683 21.8096 7.93948C21.8104 7.94551 21.8113 7.95428 21.8125 7.96389C21.8149 7.98298 21.818 8.00892 21.8213 8.04104C21.828 8.10614 21.836 8.19768 21.8418 8.30862C21.8534 8.52913 21.8576 8.83564 21.8252 9.18069C21.7668 9.80242 21.5805 10.6672 20.9922 11.3379L20.8691 11.4688C20.1836 12.1548 19.2443 12.3628 18.5811 12.4248C18.2358 12.4571 17.9287 12.4531 17.708 12.4414C17.597 12.4356 17.5056 12.4277 17.4404 12.4209C17.4079 12.4175 17.3815 12.4146 17.3623 12.4121C17.3527 12.4109 17.3449 12.409 17.3389 12.4082C17.3359 12.4078 17.3331 12.4075 17.3311 12.4073H17.3271L17.4346 11.6651L16.6924 11.7715H16.6914V11.7676L16.6875 11.7364C16.6851 11.7171 16.6821 11.6908 16.6787 11.6582C16.672 11.5932 16.664 11.5024 16.6582 11.3916C16.6466 11.171 16.6424 10.8639 16.6748 10.5186C16.7371 9.85533 16.945 8.91538 17.6309 8.22952C18.3165 7.54395 19.2568 7.3373 19.9199 7.27542C20.2652 7.24322 20.5723 7.24713 20.793 7.25882ZM17.3262 12.4073C16.9977 12.3594 16.7401 12.101 16.6924 11.7725L17.4346 11.6651L17.3262 12.4073ZM20.0586 8.76858C19.5201 8.81888 19.0075 8.975 18.6914 9.29104C18.3749 9.60783 18.2195 10.1203 18.1689 10.6582C18.1595 10.7583 18.1558 10.8551 18.1533 10.9453C18.2439 10.9429 18.341 10.9401 18.4414 10.9307C18.9798 10.8803 19.4925 10.7246 19.8086 10.4082L19.9199 10.2803C20.1625 9.96261 20.2878 9.51157 20.332 9.04104C20.3415 8.94062 20.3442 8.84349 20.3467 8.75296C20.2561 8.75537 20.159 8.75921 20.0586 8.76858ZM23.1504 18.6875C23.1505 19.8213 23.9234 20.7939 25.0068 21.1045C25.2033 21.1608 25.3685 21.2958 25.4639 21.4766C25.5589 21.6572 25.5761 21.8688 25.5117 22.0625C25.1285 23.2148 24.5485 24.3082 23.8584 25.1924C23.2193 26.0112 22.4457 26.7008 21.5986 27.0537L21.4277 27.1201C20.4703 27.4629 19.5666 27.0697 18.9307 26.6612L18.6748 26.4864C18.4651 26.3357 18.2479 26.2006 18.0469 26.1055C17.8356 26.0056 17.6979 25.9776 17.6309 25.9776C17.5626 25.9777 17.4253 26.0059 17.2148 26.1055C17.0141 26.2005 16.7977 26.3362 16.5869 26.4873L16.5859 26.4864C15.9915 26.9128 15.0549 27.4411 14.0391 27.1826L13.835 27.1201C12.5629 26.6641 11.4247 25.4286 10.6211 24.0176C9.8048 22.5842 9.25 20.8268 9.25 19.1553C9.25003 17.2208 9.76519 15.6382 10.6768 14.5235C11.5962 13.3992 12.8824 12.7998 14.293 12.7998C15.2357 12.7998 16.0622 13.1775 16.6816 13.5811L16.7998 13.6533C17.3536 13.9686 17.9081 13.9689 18.4629 13.6533L18.5811 13.5801C19.2001 13.1763 20.0277 12.7998 20.9697 12.7998C22.6908 12.7999 24.2075 13.6905 25.1133 15.2998C25.2188 15.4875 25.239 15.7118 25.168 15.9151C25.0969 16.1183 24.9416 16.2813 24.7422 16.3623C23.7993 16.7454 23.1504 17.6487 23.1504 18.6875Z" fill="#0D1F40"></path>
</svg>