<svg xmlns="http://www.w3.org/2000/svg" width="36" height="36" viewBox="0 0 36 36" fill="none" class="injected-svg footer-primary--contact-img" data-src="/de5470ae07089da7c59e.svg">
<path d="M36 18C36 27.9411 27.9411 36 18 36C8.05887 36 0 27.9411 0 18C0 8.05887 8.05887 0 18 0C27.9411 0 36 8.05887 36 18Z" fill="white"></path>
<path d="M34.5 18C34.5 8.8873 27.1127 1.5 18 1.5C8.8873 1.5 1.5 8.8873 1.5 18C1.5 27.1127 8.8873 34.5 18 34.5V36C8.05887 36 0 27.9411 0 18C0 8.05887 8.05887 0 18 0C27.9411 0 36 8.05887 36 18C36 27.9411 27.9411 36 18 36V34.5C27.1127 34.5 34.5 27.1127 34.5 18Z" fill="#0D1F40"></path>
<path d="M12.4092 8.3623L12.4707 8.37207C12.884 8.46007 13.2806 8.61231 13.6484 8.82031L13.6494 8.81933L24.124 14.6035C24.1463 14.6099 24.1686 14.6171 24.1904 14.626C24.2597 14.6542 24.321 14.6953 24.375 14.7432L27.7598 16.6143L28.0117 16.7637C28.2536 16.9178 28.4658 17.0872 28.6328 17.2764C28.8592 17.5327 29.0283 17.8574 29.0283 18.2383C29.0283 18.6189 28.859 18.943 28.6328 19.1992C28.4101 19.4514 28.1068 19.669 27.7598 19.8613V19.8623L24.3818 21.7285C24.345 21.7621 24.3043 21.7918 24.2598 21.8164L13.6699 27.6768H13.6689C13.35 27.8527 12.9374 28.0394 12.5107 28.1133C12.0957 28.1851 11.5624 28.164 11.1289 27.79V27.791C10.5365 27.3171 10.3497 26.4849 10.3496 25.6035V10.8936C10.3496 10.0175 10.5295 9.18878 11.0723 8.71386L11.1396 8.66211C11.1766 8.63746 11.2166 8.61814 11.2578 8.60156C11.5588 8.42846 11.9008 8.34086 12.2471 8.35058L12.4092 8.3623ZM13.5635 26.249L22.8838 21.0918L21.001 19.168L13.5635 26.249ZM21.9287 18.2373L24.0635 20.4199L27.1299 18.7246L27.3164 18.6143C27.4829 18.5079 27.5918 18.4141 27.6582 18.3389C27.7046 18.2862 27.7209 18.2531 27.7266 18.2383C27.7211 18.2236 27.7052 18.1899 27.6582 18.1367C27.5696 18.0365 27.4051 17.9045 27.1299 17.752V17.751L24.0625 16.0557L21.9287 18.2373ZM20.9902 17.3174L22.8691 15.3965L13.6006 10.2773L20.9902 17.3174ZM11.6504 25.6035C11.6504 25.8595 11.6713 26.0635 11.7012 26.2256L20.0674 18.2471L11.6992 10.2617C11.6702 10.4279 11.6504 10.636 11.6504 10.8936V25.6035Z" fill="#0D1F40"></path>
</svg>