<svg xmlns="http://www.w3.org/2000/svg" width="36" height="36" viewBox="0 0 36 36" fill="none" class="injected-svg footer-primary--social-items" data-src="/6013b774cc5d4ed287b8.svg">
<circle cx="18" cy="18" r="17.25" fill="white" stroke="#0D1F40" stroke-width="1.5"></circle>
<path d="M18 26.5C19.81 26.5 21.545 26.321 23.153 25.993C25.163 25.583 26.167 25.379 27.083 24.201C28 23.022 28 21.669 28 18.963V17.037C28 14.331 28 12.977 27.083 11.799C26.167 10.621 25.163 10.416 23.153 10.007C21.4565 9.66699 19.7303 9.49715 18 9.50004C16.19 9.50004 14.455 9.67904 12.847 10.007C10.837 10.417 9.833 10.621 8.917 11.799C8 12.978 8 14.331 8 17.037V18.963C8 21.669 8 23.023 8.917 24.201C9.833 25.379 10.837 25.584 12.847 25.993C14.455 26.321 16.19 26.5 18 26.5Z" stroke="#0D1F40" stroke-width="1.5" stroke-linecap="round" stroke-linejoin="round"></path>
<path d="M21.962 18.313C21.814 18.919 21.024 19.353 19.445 20.224C17.727 21.171 16.868 21.644 16.173 21.461C15.9414 21.4012 15.725 21.2932 15.538 21.144C15 20.709 15 19.806 15 18C15 16.194 15 15.291 15.538 14.856C15.72 14.709 15.938 14.6 16.173 14.539C16.868 14.356 17.727 14.829 19.445 15.776C21.025 16.646 21.814 17.081 21.962 17.687C22.012 17.893 22.012 18.107 21.962 18.313Z" stroke="#0D1F40" stroke-width="1.5" stroke-linecap="round" stroke-linejoin="round"></path>
</svg>