<svg xmlns="http://www.w3.org/2000/svg" width="44" height="44" viewBox="0 0 44 44" fill="none" class="injected-svg footer-primary--social-items" data-src="/cc3ca7e5af60b300c38a.svg">
<path d="M21.642 4C31.938 4 40.284 12.332 40.284 22.611C40.284 32.889 31.938 41.222 21.642 41.222C11.347 41.222 3 32.889 3 22.611C3.001 12.332 11.347 4 21.642 4Z" stroke="#0D1F40"></path>
<mask id="path-2-outside-1_25_37" maskUnits="userSpaceOnUse" x="12" y="15" width="19" height="16" fill="black">
<rect fill="white" x="12" y="15" width="19" height="16"></rect>
<path d="M24.193 21.9281L20.9835 20.0801C20.7951 19.9716 20.5814 19.9146 20.364 19.9148C20.1465 19.9149 19.9329 19.9723 19.7447 20.081C19.5564 20.1898 19.4 20.3462 19.2913 20.5345C19.1825 20.7227 19.1252 20.9363 19.125 21.1538V24.848C19.1224 25.2908 19.3586 25.7003 19.7428 25.919C19.9311 26.029 20.1452 26.0871 20.3633 26.0874C20.5814 26.0878 20.7957 26.0302 20.9844 25.9208L24.193 24.0727C24.3815 23.9644 24.5381 23.8082 24.647 23.6201C24.7558 23.4319 24.8132 23.2183 24.8132 23.0009C24.8132 22.7835 24.7558 22.5699 24.647 22.3817C24.5381 22.1935 24.3815 22.0374 24.193 21.929M23.7555 23.3132L20.5478 25.1621C20.4923 25.1951 20.429 25.2125 20.3644 25.2125C20.2999 25.2125 20.2366 25.1951 20.1811 25.1621C20.1255 25.1304 20.0794 25.0844 20.0475 25.0289C20.0157 24.9733 19.9993 24.9103 20 24.8462V21.1538C19.9996 21.09 20.0161 21.0273 20.048 20.9721C20.0798 20.9169 20.1258 20.8712 20.1811 20.8396C20.2362 20.8059 20.2995 20.788 20.364 20.788C20.4285 20.788 20.4918 20.8059 20.5469 20.8396L23.7555 22.6885C23.8108 22.7198 23.8569 22.7651 23.8889 22.82C23.9209 22.8749 23.9378 22.9373 23.9378 23.0009C23.9378 23.0644 23.9209 23.1268 23.8889 23.1817C23.8569 23.2366 23.8108 23.282 23.7555 23.3132ZM27.875 16H15.625C14.929 16.0007 14.2617 16.2775 13.7696 16.7696C13.2775 17.2617 13.0007 17.929 13 18.625V27.375C13.0007 28.071 13.2775 28.7383 13.7696 29.2304C14.2617 29.7225 14.929 29.9993 15.625 30H27.875C28.571 29.9993 29.2383 29.7225 29.7304 29.2304C30.2225 28.7383 30.4993 28.071 30.5 27.375V18.625C30.4993 17.929 30.2225 17.2617 29.7304 16.7696C29.2383 16.2775 28.571 16.0007 27.875 16ZM29.625 27.375C29.6243 27.8389 29.4397 28.2836 29.1117 28.6117C28.7836 28.9397 28.3389 29.1243 27.875 29.125H15.625C15.1611 29.1243 14.7164 28.9397 14.3883 28.6117C14.0603 28.2836 13.8757 27.8389 13.875 27.375V18.625C13.8757 18.1611 14.0603 17.7164 14.3883 17.3883C14.7164 17.0603 15.1611 16.8757 15.625 16.875H27.875C28.3389 16.8757 28.7836 17.0603 29.1117 17.3883C29.4397 17.7164 29.6243 18.1611 29.625 18.625V27.375Z"></path>
</mask>
<path d="M24.193 21.9281L20.9835 20.0801C20.7951 19.9716 20.5814 19.9146 20.364 19.9148C20.1465 19.9149 19.9329 19.9723 19.7447 20.081C19.5564 20.1898 19.4 20.3462 19.2913 20.5345C19.1825 20.7227 19.1252 20.9363 19.125 21.1538V24.848C19.1224 25.2908 19.3586 25.7003 19.7428 25.919C19.9311 26.029 20.1452 26.0871 20.3633 26.0874C20.5814 26.0878 20.7957 26.0302 20.9844 25.9208L24.193 24.0727C24.3815 23.9644 24.5381 23.8082 24.647 23.6201C24.7558 23.4319 24.8132 23.2183 24.8132 23.0009C24.8132 22.7835 24.7558 22.5699 24.647 22.3817C24.5381 22.1935 24.3815 22.0374 24.193 21.929M23.7555 23.3132L20.5478 25.1621C20.4923 25.1951 20.429 25.2125 20.3644 25.2125C20.2999 25.2125 20.2366 25.1951 20.1811 25.1621C20.1255 25.1304 20.0794 25.0844 20.0475 25.0289C20.0157 24.9733 19.9993 24.9103 20 24.8462V21.1538C19.9996 21.09 20.0161 21.0273 20.048 20.9721C20.0798 20.9169 20.1258 20.8712 20.1811 20.8396C20.2362 20.8059 20.2995 20.788 20.364 20.788C20.4285 20.788 20.4918 20.8059 20.5469 20.8396L23.7555 22.6885C23.8108 22.7198 23.8569 22.7651 23.8889 22.82C23.9209 22.8749 23.9378 22.9373 23.9378 23.0009C23.9378 23.0644 23.9209 23.1268 23.8889 23.1817C23.8569 23.2366 23.8108 23.282 23.7555 23.3132ZM27.875 16H15.625C14.929 16.0007 14.2617 16.2775 13.7696 16.7696C13.2775 17.2617 13.0007 17.929 13 18.625V27.375C13.0007 28.071 13.2775 28.7383 13.7696 29.2304C14.2617 29.7225 14.929 29.9993 15.625 30H27.875C28.571 29.9993 29.2383 29.7225 29.7304 29.2304C30.2225 28.7383 30.4993 28.071 30.5 27.375V18.625C30.4993 17.929 30.2225 17.2617 29.7304 16.7696C29.2383 16.2775 28.571 16.0007 27.875 16ZM29.625 27.375C29.6243 27.8389 29.4397 28.2836 29.1117 28.6117C28.7836 28.9397 28.3389 29.1243 27.875 29.125H15.625C15.1611 29.1243 14.7164 28.9397 14.3883 28.6117C14.0603 28.2836 13.8757 27.8389 13.875 27.375V18.625C13.8757 18.1611 14.0603 17.7164 14.3883 17.3883C14.7164 17.0603 15.1611 16.8757 15.625 16.875H27.875C28.3389 16.8757 28.7836 17.0603 29.1117 17.3883C29.4397 17.7164 29.6243 18.1611 29.625 18.625V27.375Z" fill="#0D1F40"></path>
<path d="M20.9835 20.0801L21.0583 19.9501L21.0583 19.9501L20.9835 20.0801ZM19.125 21.1538L18.975 21.1536V21.1538H19.125ZM19.125 24.848L19.275 24.8489V24.848H19.125ZM19.7428 25.919L19.8184 25.7895L19.817 25.7887L19.7428 25.919ZM20.9844 25.9208L20.9095 25.7908L20.9091 25.791L20.9844 25.9208ZM24.193 24.0727L24.1182 23.9427L24.1181 23.9428L24.193 24.0727ZM23.7555 23.3132L23.6817 23.1826L23.6806 23.1833L23.7555 23.3132ZM20.5478 25.1621L20.4728 25.0322L20.4711 25.0332L20.5478 25.1621ZM20.1811 25.1621L20.2578 25.0332L20.2554 25.0318L20.1811 25.1621ZM20 24.8462L20.15 24.848V24.8462H20ZM20 21.1538H20.15L20.15 21.1527L20 21.1538ZM20.1811 20.8396L20.2554 20.97L20.2595 20.9675L20.1811 20.8396ZM20.364 20.788V20.638V20.788ZM20.5469 20.8396L20.4685 20.9676L20.472 20.9696L20.5469 20.8396ZM23.7555 22.6885L23.6806 22.8185L23.6817 22.8191L23.7555 22.6885ZM27.875 16L27.8751 15.85H27.875V16ZM15.625 16L15.625 15.85L15.6249 15.85L15.625 16ZM13 18.625L12.85 18.6249V18.625H13ZM13 27.375L12.85 27.375L12.85 27.3751L13 27.375ZM15.625 30L15.6249 30.15H15.625V30ZM27.875 30L27.875 30.15L27.8751 30.15L27.875 30ZM30.5 27.375L30.65 27.3751V27.375H30.5ZM30.5 18.625L30.65 18.625L30.65 18.6249L30.5 18.625ZM29.625 27.375L29.775 27.3752V27.375H29.625ZM27.875 29.125L27.875 29.275L27.8752 29.275L27.875 29.125ZM15.625 29.125L15.6248 29.275H15.625V29.125ZM13.875 27.375L13.725 27.375L13.725 27.3752L13.875 27.375ZM13.875 18.625L13.725 18.6248V18.625H13.875ZM15.625 16.875L15.625 16.725L15.6248 16.725L15.625 16.875ZM27.875 16.875L27.8752 16.725H27.875V16.875ZM29.625 18.625L29.775 18.625L29.775 18.6248L29.625 18.625ZM24.2678 21.7981L21.0583 19.9501L20.9087 20.2101L24.1182 22.0581L24.2678 21.7981ZM21.0583 19.9501C20.8471 19.8285 20.6076 19.7646 20.3639 19.7648L20.3641 20.0648C20.5552 20.0646 20.743 20.1148 20.9087 20.2101L21.0583 19.9501ZM20.3639 19.7648C20.1201 19.7649 19.8807 19.8292 19.6696 19.9512L19.8197 20.2109C19.9852 20.1153 20.1729 20.0649 20.3641 20.0648L20.3639 19.7648ZM19.6696 19.9512C19.4586 20.0731 19.2833 20.2484 19.1614 20.4594L19.4211 20.6095C19.5167 20.444 19.6542 20.3065 19.8197 20.2109L19.6696 19.9512ZM19.1614 20.4594C19.0394 20.6705 18.9752 20.9099 18.975 21.1536L19.275 21.1539C19.2751 20.9627 19.3255 20.775 19.4211 20.6095L19.1614 20.4594ZM18.975 21.1538V24.848H19.275V21.1538H18.975ZM18.975 24.8471C18.9721 25.344 19.2372 25.8037 19.6685 26.0493L19.817 25.7887C19.4801 25.5968 19.2727 25.2375 19.275 24.8489L18.975 24.8471ZM19.6671 26.0485C19.8783 26.1719 20.1185 26.2371 20.3631 26.2374L20.3635 25.9374C20.1719 25.9372 19.9838 25.8861 19.8184 25.7895L19.6671 26.0485ZM20.3631 26.2374C20.6077 26.2378 20.8481 26.1733 21.0597 26.0505L20.9091 25.791C20.7434 25.8872 20.5551 25.9377 20.3635 25.9374L20.3631 26.2374ZM21.0592 26.0507L24.2679 24.2027L24.1181 23.9428L20.9095 25.7908L21.0592 26.0507ZM24.2678 24.2028C24.4791 24.0813 24.6547 23.9062 24.7768 23.6952L24.5171 23.5449C24.4214 23.7103 24.2839 23.8475 24.1182 23.9427L24.2678 24.2028ZM24.7768 23.6952C24.8989 23.4842 24.9632 23.2447 24.9632 23.0009H24.6632C24.6632 23.1919 24.6128 23.3796 24.5171 23.5449L24.7768 23.6952ZM24.9632 23.0009C24.9632 22.7571 24.8989 22.5176 24.7768 22.3066L24.5171 22.4568C24.6128 22.6222 24.6632 22.8098 24.6632 23.0009H24.9632ZM24.7768 22.3066C24.6547 22.0956 24.4791 21.9205 24.2678 21.799L24.1182 22.059C24.2839 22.1543 24.4214 22.2915 24.5171 22.4568L24.7768 22.3066ZM23.6806 23.1833L20.4728 25.0322L20.6227 25.2921L23.8304 23.4432L23.6806 23.1833ZM20.4711 25.0332C20.4388 25.0524 20.402 25.0625 20.3644 25.0625V25.3625C20.4559 25.3625 20.5457 25.3378 20.6244 25.2911L20.4711 25.0332ZM20.3644 25.0625C20.3269 25.0625 20.29 25.0524 20.2578 25.0332L20.1045 25.2911C20.1831 25.3378 20.2729 25.3625 20.3644 25.3625V25.0625ZM20.2554 25.0318C20.223 25.0134 20.1962 24.9866 20.1776 24.9543L19.9174 25.1035C19.9626 25.1823 20.028 25.2475 20.1069 25.2925L20.2554 25.0318ZM20.1776 24.9543C20.1591 24.9219 20.1496 24.8852 20.15 24.848L19.85 24.8445C19.849 24.9353 19.8722 25.0247 19.9174 25.1035L20.1776 24.9543ZM20.15 24.8462V21.1538H19.85V24.8462H20.15ZM20.15 21.1527C20.1497 21.1157 20.1594 21.0792 20.1779 21.047L19.918 20.8972C19.8729 20.9755 19.8494 21.0644 19.85 21.1548L20.15 21.1527ZM20.1779 21.047C20.1964 21.0149 20.2232 20.9883 20.2554 20.97L20.1069 20.7093C20.0283 20.754 19.9632 20.8189 19.918 20.8972L20.1779 21.047ZM20.2595 20.9675C20.2909 20.9482 20.3271 20.938 20.364 20.938V20.638C20.2718 20.638 20.1814 20.6635 20.1027 20.7117L20.2595 20.9675ZM20.364 20.938C20.4009 20.938 20.4371 20.9482 20.4685 20.9675L20.6253 20.7117C20.5466 20.6635 20.4562 20.638 20.364 20.638L20.364 20.938ZM20.472 20.9696L23.6806 22.8185L23.8304 22.5585L20.6218 20.7097L20.472 20.9696ZM23.6817 22.8191C23.7139 22.8373 23.7407 22.8637 23.7594 22.8956L24.0185 22.7444C23.973 22.6666 23.9077 22.6022 23.8293 22.5579L23.6817 22.8191ZM23.7594 22.8956C23.778 22.9276 23.7878 22.9639 23.7878 23.0009H24.0878C24.0878 22.9108 24.0639 22.8222 24.0185 22.7444L23.7594 22.8956ZM23.7878 23.0009C23.7878 23.0379 23.778 23.0742 23.7594 23.1061L24.0185 23.2573C24.0639 23.1795 24.0878 23.091 24.0878 23.0009H23.7878ZM23.7594 23.1061C23.7407 23.138 23.7139 23.1645 23.6817 23.1826L23.8293 23.4439C23.9077 23.3995 23.973 23.3352 24.0185 23.2573L23.7594 23.1061ZM27.875 15.85H15.625V16.15H27.875V15.85ZM15.6249 15.85C14.8891 15.8507 14.1838 16.1433 13.6635 16.6635L13.8757 16.8757C14.3397 16.4116 14.9689 16.1507 15.6251 16.15L15.6249 15.85ZM13.6635 16.6635C13.1433 17.1838 12.8507 17.8891 12.85 18.6249L13.15 18.6251C13.1507 17.9689 13.4116 17.3397 13.8757 16.8757L13.6635 16.6635ZM12.85 18.625V27.375H13.15V18.625H12.85ZM12.85 27.3751C12.8507 28.1109 13.1433 28.8162 13.6635 29.3365L13.8757 29.1243C13.4116 28.6603 13.1507 28.0311 13.15 27.3749L12.85 27.3751ZM13.6635 29.3365C14.1838 29.8567 14.8891 30.1493 15.6249 30.15L15.6251 29.85C14.9689 29.8493 14.3397 29.5884 13.8757 29.1243L13.6635 29.3365ZM15.625 30.15H27.875V29.85H15.625V30.15ZM27.8751 30.15C28.6109 30.1493 29.3162 29.8567 29.8365 29.3365L29.6243 29.1243C29.1603 29.5884 28.5311 29.8493 27.8749 29.85L27.8751 30.15ZM29.8365 29.3365C30.3567 28.8162 30.6493 28.1109 30.65 27.3751L30.35 27.3749C30.3493 28.0311 30.0884 28.6603 29.6243 29.1243L29.8365 29.3365ZM30.65 27.375V18.625H30.35V27.375H30.65ZM30.65 18.6249C30.6493 17.8891 30.3567 17.1838 29.8365 16.6635L29.6243 16.8757C30.0884 17.3397 30.3493 17.9689 30.35 18.6251L30.65 18.6249ZM29.8365 16.6635C29.3162 16.1433 28.6109 15.8507 27.8751 15.85L27.8749 16.15C28.5311 16.1507 29.1603 16.4116 29.6243 16.8757L29.8365 16.6635ZM29.475 27.3748C29.4744 27.799 29.3056 28.2056 29.0056 28.5056L29.2177 28.7177C29.5739 28.3616 29.7742 27.8788 29.775 27.3752L29.475 27.3748ZM29.0056 28.5056C28.7056 28.8056 28.299 28.9744 27.8748 28.975L27.8752 29.275C28.3788 29.2742 28.8616 29.0739 29.2177 28.7177L29.0056 28.5056ZM27.875 28.975H15.625V29.275H27.875V28.975ZM15.6252 28.975C15.201 28.9744 14.7944 28.8056 14.4944 28.5056L14.2823 28.7177C14.6384 29.0739 15.1212 29.2742 15.6248 29.275L15.6252 28.975ZM14.4944 28.5056C14.1944 28.2056 14.0256 27.799 14.025 27.3748L13.725 27.3752C13.7258 27.8788 13.9262 28.3616 14.2823 28.7177L14.4944 28.5056ZM14.025 27.375V18.625H13.725V27.375H14.025ZM14.025 18.6252C14.0256 18.201 14.1944 17.7944 14.4944 17.4944L14.2823 17.2823C13.9262 17.6384 13.7258 18.1212 13.725 18.6248L14.025 18.6252ZM14.4944 17.4944C14.7944 17.1944 15.201 17.0256 15.6252 17.025L15.6248 16.725C15.1212 16.7258 14.6384 16.9262 14.2823 17.2823L14.4944 17.4944ZM15.625 17.025H27.875V16.725H15.625V17.025ZM27.8748 17.025C28.299 17.0256 28.7056 17.1944 29.0056 17.4944L29.2177 17.2823C28.8616 16.9262 28.3788 16.7258 27.8752 16.725L27.8748 17.025ZM29.0056 17.4944C29.3056 17.7944 29.4744 18.201 29.475 18.6252L29.775 18.6248C29.7742 18.1212 29.5739 17.6384 29.2177 17.2823L29.0056 17.4944ZM29.475 18.625V27.375H29.775V18.625H29.475Z" fill="#0D1F40" mask="url(#path-2-outside-1_25_37)"></path>
</svg>