<svg xmlns="http://www.w3.org/2000/svg" width="44" height="44" viewBox="0 0 44 44" fill="none" class="injected-svg footer-primary--contact-img" data-src="/6f65361866bd70601dc7.svg">
<path d="M10.3964 10.2779L22.3565 22.0068L10.4853 33.8437C10.2911 33.5908 10.1404 33.3073 10.0392 33.0049C9.98692 32.6625 9.98692 32.3141 10.0392 31.9717V11.8283C10.0036 11.2878 10.1282 10.7473 10.395 10.2779M27.5087 16.8915L23.6045 20.7588L11.7867 9.13662C12.1699 9.00388 12.5804 8.96693 12.9814 9.02988C13.6108 9.2023 14.2116 9.46778 14.7631 9.81399L25.4588 15.7325C26.1539 16.1061 26.8313 16.4988 27.5087 16.8915ZM23.6059 23.2726L27.4909 27.0878L24.6747 28.656L16.0822 33.4318C15.3707 33.8246 14.6563 34.1995 13.9612 34.6279C13.6637 34.8131 13.3302 34.9326 12.9828 34.9787C12.6354 35.0247 12.2822 34.9961 11.9468 34.8947L23.6059 23.2726ZM33.6776 22.0068C33.6876 22.4853 33.5667 22.9574 33.3279 23.3722C33.0892 23.787 32.7416 24.1288 32.3229 24.3605L29.1125 26.1422L24.8881 22.0068L29.1303 17.8002C30.2182 18.4064 31.2883 19.0126 32.3571 19.5833C32.7833 19.8215 33.1334 20.1755 33.3668 20.6044C33.6003 21.0333 33.7089 21.5195 33.6776 22.0068Z" fill="#0D1F40"></path>
</svg>