<svg xmlns="http://www.w3.org/2000/svg" width="44" height="44" viewBox="0 0 44 44" fill="none" class="injected-svg footer-primary--social-items" data-src="/787593212c03723f1e60.svg">
<path d="M22.0002 3.36792C32.1192 3.36792 40.3212 11.6819 40.3212 21.9409C40.3212 32.1989 32.1192 40.5139 22.0002 40.5139C11.8812 40.5139 3.6792 32.1999 3.6792 21.9409C3.6792 11.6819 11.8812 3.36792 22.0002 3.36792Z" stroke="#0D1F40"></path>
<path d="M20.1411 31.2269V23.1799H17.4341V20.0439H20.1411V17.7319C20.1411 15.0469 21.7801 13.5859 24.1731 13.5859C25.3191 13.5859 26.3061 13.6709 26.5921 13.7099V16.5159H24.9311C23.6301 16.5159 23.3791 17.1349 23.3791 18.0429V20.0449H26.4821L26.0791 23.1809H23.3801V31.2279H20.1411V31.2269Z" fill="#0D1F40"></path>
</svg>