<svg xmlns="http://www.w3.org/2000/svg" width="44" height="44" viewBox="0 0 44 44" fill="none" class="injected-svg footer-primary--social-items" data-src="/03f21ef403d6b73b1e21.svg">
<path d="M22.321 3C32.44 3 40.642 11.314 40.642 21.573C40.642 31.831 32.44 40.146 22.321 40.146C12.202 40.146 4 31.832 4 21.573C4 11.314 12.202 3 22.321 3Z" stroke="#0D1F40"></path>
<path fill-rule="evenodd" clip-rule="evenodd" d="M30.5645 30.2L24.0867 20.7583L24.0978 20.7672L29.9385 14H27.9867L23.2287 19.508L19.4503 14H14.3314L20.3791 22.815L20.3783 22.8143L14 30.2H15.9518L21.2415 24.072L25.4456 30.2H30.5645ZM18.6769 15.4727L27.7657 28.7273H26.219L17.1229 15.4727H18.6769Z" fill="#0D1F40"></path>
</svg>