<svg xmlns="http://www.w3.org/2000/svg" width="44" height="44" viewBox="0 0 44 44" fill="none" class="injected-svg footer-primary--contact-img" data-src="/74b19ff7fd88943fe692.svg">
<path d="M29.2986 33.9569C27.8832 35.3289 26.3379 35.1123 24.8503 34.4623C23.276 33.798 21.8318 33.7691 20.1709 34.4623C18.0911 35.3578 16.9935 35.0978 15.7514 33.9569C8.70344 26.6922 9.74331 15.6292 17.7445 15.2248C19.6943 15.3259 21.0519 16.2935 22.1928 16.3802C23.8971 16.0336 25.5291 15.037 27.3489 15.167C29.5297 15.3403 31.1762 16.2069 32.2594 17.7667C27.7533 20.4674 28.822 26.4034 32.9526 28.0643C32.1294 30.2307 31.0606 32.3826 29.2842 33.9713L29.2986 33.9569ZM22.0484 15.1381C21.8318 11.9174 24.4459 9.25997 27.45 9C27.8688 12.7262 24.0704 15.4992 22.0484 15.1381Z" fill="#0D1F40"></path>
</svg>