<svg xmlns="http://www.w3.org/2000/svg" width="44" height="44" viewBox="0 0 44 44" fill="none" class="injected-svg footer-primary--social-items" data-src="/bf39cb9decad571e439b.svg">
<path d="M21.9438 3.47192C32.2398 3.47192 40.5858 11.8039 40.5858 22.0829C40.5858 32.3609 32.2398 40.6929 21.9438 40.6929C11.6488 40.6929 3.30176 32.3609 3.30176 22.0829C3.30276 11.8039 11.6488 3.47192 21.9438 3.47192Z" stroke="#0D1F40"></path>
<path d="M14 22.1C14 18.2819 14 16.372 15.186 15.186C16.372 14 18.2811 14 22.1 14C25.9181 14 27.828 14 29.014 15.186C30.2 16.372 30.2 18.2811 30.2 22.1C30.2 25.9181 30.2 27.828 29.014 29.014C27.828 30.2 25.9189 30.2 22.1 30.2C18.2819 30.2 16.372 30.2 15.186 29.014C14 27.828 14 25.9189 14 22.1Z" stroke="#0D1F40" stroke-width="1.25" stroke-linecap="round" stroke-linejoin="round"></path>
<path d="M26.7963 17.4106H26.7878M25.9369 22.1001C25.9369 23.1177 25.5326 24.0936 24.8131 24.8132C24.0935 25.5327 23.1176 25.937 22.1 25.937C21.0824 25.937 20.1065 25.5327 19.387 24.8132C18.6674 24.0936 18.2632 23.1177 18.2632 22.1001C18.2632 21.0825 18.6674 20.1066 19.387 19.3871C20.1065 18.6675 21.0824 18.2633 22.1 18.2633C23.1176 18.2633 24.0935 18.6675 24.8131 19.3871C25.5326 20.1066 25.9369 21.0825 25.9369 22.1001Z" stroke="#0D1F40" stroke-width="1.25" stroke-linecap="round" stroke-linejoin="round"></path>
</svg>